<mxfile host="app.diagrams.net" modified="2022-05-19T03:52:32.666Z" agent="5.0 (Windows NT 10.0; Win64; x64) AppleWebKit/537.36 (KHTML, like Gecko) Chrome/101.0.4951.67 Safari/537.36" etag="aM5NvcmbVV6IMTIS-z0f" version="18.0.7" type="github">
  <diagram id="C5RBs43oDa-KdzZeNtuy" name="Page-1">
    <mxGraphModel dx="1422" dy="800" grid="1" gridSize="10" guides="1" tooltips="1" connect="1" arrows="1" fold="1" page="1" pageScale="1" pageWidth="827" pageHeight="1169" math="0" shadow="0">
      <root>
        <mxCell id="WIyWlLk6GJQsqaUBKTNV-0" />
        <mxCell id="WIyWlLk6GJQsqaUBKTNV-1" parent="WIyWlLk6GJQsqaUBKTNV-0" />
        <mxCell id="Aom0i5uG0erPfwLOBZmy-6" value="" style="edgeStyle=orthogonalEdgeStyle;rounded=0;orthogonalLoop=1;jettySize=auto;html=1;" edge="1" parent="WIyWlLk6GJQsqaUBKTNV-1" source="Aom0i5uG0erPfwLOBZmy-2">
          <mxGeometry relative="1" as="geometry">
            <mxPoint x="295" y="170" as="targetPoint" />
          </mxGeometry>
        </mxCell>
        <mxCell id="Aom0i5uG0erPfwLOBZmy-2" value="&lt;pre style=&quot;background-color:#2b2b2b;color:#a9b7c6;font-family:&#39;JetBrains Mono&#39;;font-size:9.8pt;&quot;&gt;scrapy.cmdline.execute(&lt;br&gt;    [&lt;span style=&quot;color:#6a8759;&quot;&gt;&#39;scrapy&#39;&lt;/span&gt;&lt;span style=&quot;color:#cc7832;&quot;&gt;, &lt;/span&gt;&lt;span style=&quot;color:#6a8759;&quot;&gt;&#39;crawl&#39;&lt;/span&gt;&lt;span style=&quot;color:#cc7832;&quot;&gt;, &lt;/span&gt;&lt;span style=&quot;color:#6a8759;&quot;&gt;&#39;spider_name&#39;&lt;/span&gt;&lt;span style=&quot;color:#cc7832;&quot;&gt;, &lt;/span&gt;&lt;span style=&quot;color:#6a8759;&quot;&gt;&#39;-a&#39;&lt;/span&gt;&lt;span style=&quot;color:#cc7832;&quot;&gt;, &lt;/span&gt;&lt;span style=&quot;color:#6a8759;&quot;&gt;&#39;{&quot;message_key&quot;: &quot;message_value&quot;}&#39;&lt;/span&gt;]&lt;br&gt;)&lt;/pre&gt;" style="rounded=1;whiteSpace=wrap;html=1;" vertex="1" parent="WIyWlLk6GJQsqaUBKTNV-1">
          <mxGeometry x="60" y="30" width="470" height="60" as="geometry" />
        </mxCell>
        <mxCell id="Aom0i5uG0erPfwLOBZmy-7" value="cmdline.py" style="swimlane;fontStyle=1;align=center;verticalAlign=top;childLayout=stackLayout;horizontal=1;startSize=26;horizontalStack=0;resizeParent=1;resizeParentMax=0;resizeLast=0;collapsible=1;marginBottom=0;" vertex="1" parent="WIyWlLk6GJQsqaUBKTNV-1">
          <mxGeometry x="162.5" y="170" width="265" height="60" as="geometry" />
        </mxCell>
        <mxCell id="Aom0i5uG0erPfwLOBZmy-9" value="" style="line;strokeWidth=1;fillColor=none;align=left;verticalAlign=middle;spacingTop=-1;spacingLeft=3;spacingRight=3;rotatable=0;labelPosition=right;points=[];portConstraint=eastwest;" vertex="1" parent="Aom0i5uG0erPfwLOBZmy-7">
          <mxGeometry y="26" width="265" height="8" as="geometry" />
        </mxCell>
        <mxCell id="Aom0i5uG0erPfwLOBZmy-10" value="def execute(argv=None, settings=None):" style="text;strokeColor=none;fillColor=none;align=left;verticalAlign=top;spacingLeft=4;spacingRight=4;overflow=hidden;rotatable=0;points=[[0,0.5],[1,0.5]];portConstraint=eastwest;" vertex="1" parent="Aom0i5uG0erPfwLOBZmy-7">
          <mxGeometry y="34" width="265" height="26" as="geometry" />
        </mxCell>
      </root>
    </mxGraphModel>
  </diagram>
</mxfile>
